TITLE ""
FILE "1Q_t_0549-0558.mp3" MP3
  TRACK 01 AUDIO
    TITLE "1Q_t_0549-0558_01"
    INDEX 01 00:00:00
  TRACK 02 AUDIO
    TITLE "1Q_t_0549-0558_02"
    INDEX 01 00:01:14
  TRACK 03 AUDIO
    TITLE "1Q_t_0549-0558_03"
    INDEX 01 00:01:22
  TRACK 04 AUDIO
    TITLE "1Q_t_0549-0558_04"
    INDEX 01 00:04:06
  TRACK 05 AUDIO
    TITLE "1Q_t_0549-0558_05"
    INDEX 01 00:04:12
  TRACK 06 AUDIO
    TITLE "1Q_t_0549-0558_06"
    INDEX 01 00:10:42
  TRACK 07 AUDIO
    TITLE "1Q_t_0549-0558_07"
    INDEX 01 00:11:10
  TRACK 08 AUDIO
    TITLE "1Q_t_0549-0558_08"
    INDEX 01 00:12:19
  TRACK 09 AUDIO
    TITLE "1Q_t_0549-0558_09"
    INDEX 01 00:12:27
  TRACK 10 AUDIO
    TITLE "1Q_t_0549-0558_10"
    INDEX 01 00:15:37
  TRACK 11 AUDIO
    TITLE "1Q_t_0549-0558_11"
    INDEX 01 00:15:43
  TRACK 12 AUDIO
    TITLE "1Q_t_0549-0558_12"
    INDEX 01 00:21:59
  TRACK 13 AUDIO
    TITLE "1Q_t_0549-0558_13"
    INDEX 01 00:22:30
  TRACK 14 AUDIO
    TITLE "1Q_t_0549-0558_14"
    INDEX 01 00:23:45
  TRACK 15 AUDIO
    TITLE "1Q_t_0549-0558_15"
    INDEX 01 00:23:56
  TRACK 16 AUDIO
    TITLE "1Q_t_0549-0558_16"
    INDEX 01 00:25:02
  TRACK 17 AUDIO
    TITLE "1Q_t_0549-0558_17"
    INDEX 01 00:25:10
  TRACK 18 AUDIO
    TITLE "1Q_t_0549-0558_18"
    INDEX 01 00:30:51
  TRACK 19 AUDIO
    TITLE "1Q_t_0549-0558_19"
    INDEX 01 00:31:23
  TRACK 20 AUDIO
    TITLE "1Q_t_0549-0558_20"
    INDEX 01 00:32:51
  TRACK 21 AUDIO
    TITLE "1Q_t_0549-0558_21"
    INDEX 01 00:32:59
  TRACK 22 AUDIO
    TITLE "1Q_t_0549-0558_22"
    INDEX 01 00:36:28
  TRACK 23 AUDIO
    TITLE "1Q_t_0549-0558_23"
    INDEX 01 00:36:36
  TRACK 24 AUDIO
    TITLE "1Q_t_0549-0558_24"
    INDEX 01 00:43:51
  TRACK 25 AUDIO
    TITLE "1Q_t_0549-0558_25"
    INDEX 01 00:44:21
  TRACK 26 AUDIO
    TITLE "1Q_t_0549-0558_26"
    INDEX 01 00:45:33
  TRACK 27 AUDIO
    TITLE "1Q_t_0549-0558_27"
    INDEX 01 00:45:40
  TRACK 28 AUDIO
    TITLE "1Q_t_0549-0558_28"
    INDEX 01 00:47:43
  TRACK 29 AUDIO
    TITLE "1Q_t_0549-0558_29"
    INDEX 01 00:47:51
  TRACK 30 AUDIO
    TITLE "1Q_t_0549-0558_30"
    INDEX 01 00:53:26
  TRACK 31 AUDIO
    TITLE "1Q_t_0549-0558_31"
    INDEX 01 00:53:71
  TRACK 32 AUDIO
    TITLE "1Q_t_0549-0558_32"
    INDEX 01 00:55:09
  TRACK 33 AUDIO
    TITLE "1Q_t_0549-0558_33"
    INDEX 01 00:55:19
  TRACK 34 AUDIO
    TITLE "1Q_t_0549-0558_34"
    INDEX 01 00:56:25
  TRACK 35 AUDIO
    TITLE "1Q_t_0549-0558_35"
    INDEX 01 00:56:28
  TRACK 36 AUDIO
    TITLE "1Q_t_0549-0558_36"
    INDEX 01 01:03:25
  TRACK 37 AUDIO
    TITLE "1Q_t_0549-0558_37"
    INDEX 01 01:03:68
  TRACK 38 AUDIO
    TITLE "1Q_t_0549-0558_38"
    INDEX 01 01:05:10
  TRACK 39 AUDIO
    TITLE "1Q_t_0549-0558_39"
    INDEX 01 01:05:22
  TRACK 40 AUDIO
    TITLE "1Q_t_0549-0558_40"
    INDEX 01 01:08:18
  TRACK 41 AUDIO
    TITLE "1Q_t_0549-0558_41"
    INDEX 01 01:08:28
  TRACK 42 AUDIO
    TITLE "1Q_t_0549-0558_42"
    INDEX 01 01:14:48
  TRACK 43 AUDIO
    TITLE "1Q_t_0549-0558_43"
    INDEX 01 01:15:18
  TRACK 44 AUDIO
    TITLE "1Q_t_0549-0558_44"
    INDEX 01 01:16:47
  TRACK 45 AUDIO
    TITLE "1Q_t_0549-0558_45"
    INDEX 01 01:16:57
  TRACK 46 AUDIO
    TITLE "1Q_t_0549-0558_46"
    INDEX 01 01:19:22
  TRACK 47 AUDIO
    TITLE "1Q_t_0549-0558_47"
    INDEX 01 01:19:29
  TRACK 48 AUDIO
    TITLE "1Q_t_0549-0558_48"
    INDEX 01 01:25:59
  TRACK 49 AUDIO
    TITLE "1Q_t_0549-0558_49"
    INDEX 01 01:26:31
  TRACK 50 AUDIO
    TITLE "1Q_t_0549-0558_50"
    INDEX 01 01:27:35
  TRACK 51 AUDIO
    TITLE "1Q_t_0549-0558_51"
    INDEX 01 01:27:43
  TRACK 52 AUDIO
    TITLE "1Q_t_0549-0558_52"
    INDEX 01 01:29:26
  TRACK 53 AUDIO
    TITLE "1Q_t_0549-0558_53"
    INDEX 01 01:29:34
  TRACK 54 AUDIO
    TITLE "1Q_t_0549-0558_54"
    INDEX 01 01:33:63
  TRACK 55 AUDIO
    TITLE "1Q_t_0549-0558_55"
    INDEX 01 01:34:33
  TRACK 56 AUDIO
    TITLE "1Q_t_0549-0558_56"
    INDEX 01 01:35:34
  TRACK 57 AUDIO
    TITLE "1Q_t_0549-0558_57"
    INDEX 01 01:35:44
  TRACK 58 AUDIO
    TITLE "1Q_t_0549-0558_58"
    INDEX 01 01:36:40
  TRACK 59 AUDIO
    TITLE "1Q_t_0549-0558_59"
    INDEX 01 01:36:48
  TRACK 60 AUDIO
    TITLE "1Q_t_0549-0558_60"
    INDEX 01 01:42:13
